<svg width="667px" height="667px" version="1.1" style="shape-rendering:geometricPrecision; text-rendering:geometricPrecision; image-rendering:optimizeQuality; fill-rule:evenodd; clip-rule:evenodd"
viewBox="0 0 667 667">
<defs>
<style type="text/css">
    .fil0 {fill:#274d94}

</style>
</defs>
<g id="logo_x0020_monocromático">
<metadata id="CorelCorpID_0Corel-Layer"/>
<path class="fil0" d="M565.65 359.93l0 17.13 3.59 0 0 -7.41 0.88 0c2.94,0.07 3.13,0.57 3.59,3.7 0.19,1.37 0.38,2.65 0.91,3.71l4.12 0c-0.83,-1.51 -1.06,-3.1 -1.4,-5.22 -0.38,-2.42 -1.13,-2.84 -2.16,-3.37 0.61,-0.22 3.26,-1.05 3.26,-4.04 0,-1.55 -0.84,-3.41 -2.91,-4.09 -1.1,-0.37 -2.28,-0.37 -4.01,-0.41l-5.87 0zm-232.15 -359.93c92.09,0 175.47,37.33 235.82,97.68 60.35,60.35 97.68,143.73 97.68,235.82 0,92.09 -37.33,175.47 -97.68,235.82 -60.35,60.35 -143.73,97.68 -235.82,97.68 -92.09,0 -175.47,-37.33 -235.82,-97.68 -60.35,-60.35 -97.68,-143.73 -97.68,-235.82 0,-92.09 37.33,-175.47 97.68,-235.82 60.35,-60.35 143.73,-97.68 235.82,-97.68zm227.47 106.03c-58.21,-58.21 -138.64,-94.21 -227.47,-94.21 -88.83,0 -169.26,36 -227.47,94.21 -58.21,58.21 -94.21,138.64 -94.21,227.47 0,88.83 36,169.26 94.21,227.47 58.21,58.21 138.64,94.21 227.47,94.21 88.83,0 169.26,-36 227.47,-94.21 58.21,-58.21 94.21,-138.64 94.21,-227.47 0,-88.83 -36,-169.26 -94.21,-227.47zm8.27 256.66l1.63 0c2.12,0 2.35,0 2.91,0.22 0.87,0.39 1.06,1.25 1.06,1.74 0,2.16 -2.11,2.12 -3.44,2.12l-2.16 0 0 -4.08zm16.69 6.02c0.04,-7.82 -6.01,-14.35 -14.3,-14.35 -7.69,0 -14.22,6.06 -14.22,14.27 0,8.45 6.77,14.26 14.22,14.26 8.05,0 14.26,-6.29 14.3,-14.18zm-2.01 -0.05c-0.04,6.77 -5.33,12.22 -12.25,12.22 -6.77,0 -12.26,-5.37 -12.26,-12.25 0,-6.74 5.37,-12.26 12.29,-12.26 7,0 12.26,5.6 12.22,12.29zm-106.85 -86.68l0 47.46c0,21.61 -13.36,26.24 -21.8,26.24 -15.76,0 -26.05,-10.51 -26.05,-26.11 0,-20.58 25.28,-29.27 47.85,-47.59zm-249.88 -95.88l-98.73 0c-5.28,0 -8.17,4.62 -8.17,8.09 0,3.44 1.42,5.25 3.96,7.16 2.08,1.56 4.3,4.29 4.21,8.14 -1.21,50.08 0,98.38 0,148.47 0,9.95 -8.22,8.62 -8.2,16.19 0.01,4.78 4.19,7.84 8.2,7.83l61.52 0c3.84,0.01 8.17,-3.06 8.2,-7.83 0.05,-7.78 -8.2,-6.36 -8.2,-15.66l0 -35.17c7.68,7.24 28.2,10.87 39.41,10.39 31.25,-1.35 52.13,-25.97 53.53,-56.85 23.04,29.03 57.05,27.36 73.78,41.07 18.56,15.21 10.78,41.89 -19.2,44.87 -14.94,1.31 -35.47,-0.95 -54.36,-18.07 -2.78,-2.53 -5.56,-5.6 -10.52,-4.62 -2.95,0.58 -6.85,4.01 -7.48,7.07 -1.23,5.94 1.63,8.3 5.61,12.33 16.73,16.96 46.14,26.45 72.52,26.15 31.27,-0.36 46.57,-7.4 58.61,-19.9 7.11,7.61 18.43,18 37.7,17.94 19.27,-0.05 30.65,-6.99 37.49,-13.37l-0.05 5.15c-0.03,3.07 2.51,6.5 6.83,6.5l54.72 0c3.31,0 8.13,-2.31 8.17,-7.84 0.06,-7.45 -8.15,-6.21 -8.15,-14.78l0 -123.47c0,-24.98 -23.78,-51.93 -73.82,-53.97 -29.76,-1.22 -47.02,8.31 -62.84,18.99 -18.83,-11.87 -34.41,-19.22 -67.43,-18.4 -33.02,0.81 -46.79,10.83 -59.74,26.26 -10.89,-15.88 -28.59,-22.68 -47.57,-22.67zm-37.21 32.84l0 69.96c0,8.51 7.08,16.47 17.1,16.36 20.92,-0.24 26.1,-30.96 26.21,-50.86 0.07,-13.99 -7.35,-47.9 -29.57,-47.9 -7.44,0 -13.74,4.64 -13.74,12.44zm223.75 -3.21l0.07 -0.04 0.01 -0.01c1.2,-0.71 2.42,-1.38 3.65,-2.02l0.11 -0.05c3.53,-1.85 7.2,-3.46 10.95,-4.71 11.68,-3.89 24.09,-4.28 36.11,2.25 8.59,4.68 14.55,13.41 13.89,23.37 -1.34,20.31 -24.53,25.82 -40.62,30.21 -10.88,2.98 -21.97,6.01 -32.99,12.38l-2.83 1.63 -2.82 -1.61c-9.95,-5.7 -18.65,-8.22 -29.56,-11.31 -16.35,-4.63 -41.09,-9.76 -43.91,-30.03 -2.35,-17 12.85,-27 27.79,-29.08 18.63,-2.58 34.24,5.9 48.51,16.83 3.64,-2.74 7.54,-5.41 11.64,-7.81zm-293.47 218.83c82.04,-33.1 162.29,-27.68 248.86,-4.39 51.99,13.94 105.29,11.6 177.62,-6.3l0 43.64c-60.12,17.09 -129.12,17.8 -185.99,4.8 -81.72,-18.67 -154.75,-28.61 -240.49,12.88l0 -50.63z"/>
</g>
</svg>